HIERARCHY
ROOT Hips
{
 OFFSET 0.000000 0.000000 0.000000
 CHANNELS 6 Xposition Yposition Zposition Yrotation Xrotation Zrotation
 JOINT Chest
 {
  OFFSET 0.000000 11.395451 -0.039534
  CHANNELS 3 Yrotation Xrotation Zrotation
  JOINT Chest2
  {
   OFFSET 0.000000 9.398669 0.071813
   CHANNELS 3 Yrotation Xrotation Zrotation
   JOINT Chest3
   {
    OFFSET 0.000000 8.489801 0.000000
    CHANNELS 3 Yrotation Xrotation Zrotation
    JOINT Chest4
    {
     OFFSET 0.000000 8.489801 0.000000
     CHANNELS 3 Yrotation Xrotation Zrotation
     JOINT Neck
     {
      OFFSET 0.000000 12.404889 0.000000
      CHANNELS 3 Yrotation Xrotation Zrotation
      JOINT Head
      {
       OFFSET 0.000000 8.903270 0.092239
       CHANNELS 3 Yrotation Xrotation Zrotation
       End Site
       {
        OFFSET 0.000000 17.592497 0.007158
       }
      }
     }
     JOINT RightCollar
     {
      OFFSET -3.196775 6.966722 0.000000
      CHANNELS 3 Yrotation Xrotation Zrotation
      JOINT RightShoulder
      {
       OFFSET -15.955896 0.000000 0.000000
       CHANNELS 3 Yrotation Xrotation Zrotation
       JOINT RightElbow
       {
        OFFSET -24.792472 0.000000 0.000000
        CHANNELS 3 Yrotation Xrotation Zrotation
        JOINT RightWrist
        {
         OFFSET -20.900115 0.000000 0.025002
         CHANNELS 3 Yrotation Xrotation Zrotation
         End Site
         {
          OFFSET -16.056692 0.000000 0.000000
         }
        }
       }
      }
     }
     JOINT LeftCollar
     {
      OFFSET 3.196775 6.966722 0.000000
      CHANNELS 3 Yrotation Xrotation Zrotation
      JOINT LeftShoulder
      {
       OFFSET 15.955896 0.000000 0.000000
       CHANNELS 3 Yrotation Xrotation Zrotation
       JOINT LeftElbow
       {
        OFFSET 24.792472 0.000000 0.000000
        CHANNELS 3 Yrotation Xrotation Zrotation
        JOINT LeftWrist
        {
         OFFSET 20.900115 0.000000 0.025002
         CHANNELS 3 Yrotation Xrotation Zrotation
         End Site
         {
          OFFSET 16.056692 0.000000 0.000000
         }
        }
       }
      }
     }
    }
   }
  }
 }
 JOINT RightHip
 {
  OFFSET -9.568995 0.193718 0.019767
  CHANNELS 3 Yrotation Xrotation Zrotation
  JOINT RightKnee
  {
   OFFSET 0.000000 -56.649296 0.015402
   CHANNELS 3 Yrotation Xrotation Zrotation
   JOINT RightAnkle
   {
    OFFSET 0.000000 -41.365147 0.021264
    CHANNELS 3 Yrotation Xrotation Zrotation
    JOINT RightToe
    {
     OFFSET 0.000000 -7.465940 17.672538
     CHANNELS 3 Yrotation Xrotation Zrotation
     End Site
     {
      OFFSET 0.000000 -1.736315 7.837145
     }
    }
   }
  }
 }
 JOINT LeftHip
 {
  OFFSET 9.568995 0.193718 0.019767
  CHANNELS 3 Yrotation Xrotation Zrotation
  JOINT LeftKnee
  {
   OFFSET 0.000000 -56.649296 0.015402
   CHANNELS 3 Yrotation Xrotation Zrotation
   JOINT LeftAnkle
   {
    OFFSET 0.000000 -41.365147 0.021264
    CHANNELS 3 Yrotation Xrotation Zrotation
    JOINT LeftToe
    {
     OFFSET 0.000000 -7.465940 17.672538
     CHANNELS 3 Yrotation Xrotation Zrotation
     End Site
     {
      OFFSET 0.000000 -1.736315 7.837145
     }
    }
   }
  }
 }
}
MOTION
Frames: 12
Frame Time: 0.016667
-88.677201 104.503486 391.087687 -117.387238 1.067774 -0.325266 -6.538988 5.372792 1.686544 -2.922453 2.363955 0.824473 -2.922444 2.363921 0.824468 -2.194713 1.769027 0.629588 -7.709401 12.345715 3.714652 -16.212802 -12.291164 10.254255 -2.420323 3.437348 6.692854 10.143468 -15.486500 47.928424 46.909053 -41.864542 22.988954 -12.749206 -12.835407 14.887748 3.782995 4.034118 -4.268121 -14.402976 -25.829462 -46.429272 -16.372567 -55.884981 -52.325387 22.136672 -17.459018 1.145856 -17.004252 -20.218871 1.335545 -5.355320 19.592486 -2.591226 -9.727245 -5.226631 -0.021749 0.000000 -0.000000 0.000000 29.308947 -3.010978 12.788742 13.076903 14.044221 0.330435 19.129181 -7.484014 -6.189457 -0.000000 -0.000000 -0.000000
-88.925607 104.312464 389.699172 -118.481721 0.937318 -0.480613 -6.695994 5.439688 1.924352 -2.995128 2.389728 0.932812 -2.995128 2.389728 0.932812 -2.249676 1.787781 0.711245 -7.499482 12.403325 3.504505 -15.721673 -12.255404 9.763963 -2.102923 4.406070 6.607703 9.882190 -16.287638 47.909410 46.988424 -41.971257 22.806120 -12.771655 -12.655891 14.786372 3.563803 4.945131 -4.072089 -13.194688 -26.740299 -47.491827 -16.897775 -55.499094 -52.084635 22.171667 -17.227970 1.259725 -15.512695 -19.954477 1.952321 -3.624338 20.410350 -1.949783 -11.703821 -5.699283 -0.834968 0.000000 0.000000 0.000000 29.726083 -4.113096 13.884803 13.436110 16.716826 0.705638 19.212965 -7.527748 -5.842011 0.000000 -0.000000 0.000000
-89.261335 104.215631 388.237603 -119.273523 0.628829 -0.718645 -6.937917 5.485913 2.162111 -3.105442 2.405798 1.041893 -3.105427 2.405869 1.041904 -2.332832 1.799222 0.793573 -7.322550 12.684750 3.321454 -15.269588 -11.795115 9.300773 -1.816520 5.130051 6.651504 9.626929 -16.661542 47.741246 46.901806 -42.026008 22.624227 -12.851992 -12.526777 14.823734 3.341053 5.336943 -4.073749 -12.668406 -26.807495 -48.189796 -17.203728 -55.342963 -51.808436 22.238599 -17.076492 1.363145 -14.401853 -19.035203 2.464141 -3.685794 20.521545 -1.682115 -11.916845 -6.308423 -1.501452 0.000000 -0.000000 -0.000000 29.910205 -5.347079 15.201255 13.890175 19.749655 1.168931 19.219265 -6.947412 -5.004659 -0.000000 -0.000000 0.000000
-89.621420 104.178594 386.738468 -119.934124 0.230106 -0.995015 -7.206844 5.517673 2.380422 -3.227498 2.415290 1.142462 -3.227470 2.415385 1.142471 -2.424756 1.805643 0.869519 -7.162278 13.106503 3.155575 -14.838191 -11.068671 8.856956 -1.546349 5.685799 6.775783 9.362969 -16.780929 47.497075 46.675454 -42.057632 22.465101 -12.971723 -12.428653 14.930743 3.114799 5.464773 -4.163093 -12.485019 -26.500985 -48.690621 -17.325440 -55.268561 -51.568603 22.338157 -16.965196 1.487193 -13.587996 -17.806627 2.969806 -4.570079 20.324694 -1.613908 -11.166135 -7.033525 -2.078762 0.000000 0.000000 0.000000 29.983464 -6.728533 16.610791 14.365073 23.040251 1.751987 19.046870 -6.006287 -3.743600 -0.000000 -0.000000 0.000000
-89.882482 104.152044 385.301019 -120.821668 -0.094258 -1.165209 -7.391228 5.522426 2.491968 -3.310750 2.414543 1.194211 -3.310750 2.414543 1.194211 -2.487427 1.804510 0.908644 -6.974716 13.540799 3.029221 -14.373906 -10.314642 8.479496 -1.332436 5.828683 6.970287 9.086621 -16.584441 47.307915 46.326769 -42.114007 22.453237 -13.125429 -12.334959 14.979140 2.954366 5.514693 -4.201804 -12.294160 -26.286019 -49.154032 -17.316291 -55.120667 -51.396234 22.440475 -16.873997 1.670561 -13.653211 -16.814580 3.803312 -4.660834 20.376647 -1.811760 -10.199840 -7.788589 -2.480167 0.000000 0.000000 0.000000 30.112087 -8.090306 17.733675 14.897012 26.084072 2.529426 18.206237 -5.046519 -2.075423 0.000000 0.000000 0.000000
-89.940622 104.110118 383.950288 -122.104661 -0.251706 -1.176505 -7.425869 5.471931 2.439803 -3.325405 2.392647 1.170659 -3.325457 2.392574 1.170652 -2.498358 1.788080 0.890918 -6.730325 13.986545 2.976948 -13.834765 -9.533850 8.222603 -1.216585 5.225773 7.327713 8.765365 -15.809567 47.202859 45.764975 -42.232495 22.709600 -13.315573 -12.231906 14.887281 2.899258 5.498173 -4.112885 -11.987475 -26.330687 -49.616938 -17.091113 -54.789914 -51.351931 22.531699 -16.804937 1.980817 -15.396553 -16.290434 5.324877 -2.981944 21.044836 -2.520015 -9.161483 -8.612896 -2.602757 0.000000 0.000000 0.000000 30.516418 -9.485051 18.453145 15.929534 28.629518 3.698672 16.228801 -3.914674 0.424365 0.000000 0.000000 -0.000000
-89.899738 104.078680 382.661244 -123.616662 -0.329227 -1.084161 -7.373719 5.385946 2.285775 -3.300123 2.357207 1.100347 -3.300172 2.357169 1.100342 -2.479067 1.761975 0.837903 -6.455022 14.446199 2.964112 -13.255421 -8.723818 8.030975 -1.158041 4.215412 7.784903 8.432894 -14.713752 47.112829 45.069494 -42.362977 23.115555 -13.533713 -12.130924 14.732748 2.910280 5.411449 -3.966380 -11.668885 -26.462632 -50.033689 -16.728361 -54.390691 -51.382161 22.628231 -16.759865 2.348551 -18.008796 -15.875590 7.135676 -0.556564 21.977729 -3.544001 -7.909797 -9.473017 -2.560688 -0.000000 -0.000000 -0.000000 31.013380 -10.865841 18.893546 17.067948 30.915671 5.088931 13.617301 -2.689021 3.290682 0.000000 0.000000 -0.000000
-89.948149 104.086013 381.458052 -125.215460 -0.430292 -0.902966 -7.314447 5.324511 2.120727 -3.271612 2.332851 1.025458 -3.271612 2.332851 1.025458 -2.457294 1.744215 0.781508 -6.185980 14.796834 2.913953 -12.691250 -8.117962 7.791118 -1.058294 3.551725 8.078681 8.181562 -14.009891 47.057553 44.516028 -42.432318 23.438619 -13.758483 -12.044092 14.627948 2.934224 5.419955 -3.856768 -11.308140 -26.632467 -50.426547 -16.527016 -54.097421 -51.345399 22.743624 -16.714018 2.608764 -19.660150 -15.350326 8.409170 1.248632 22.646810 -4.315679 -6.774338 -10.183176 -2.563973 0.000000 0.000000 0.000000 31.196599 -11.917399 19.038141 17.012854 33.232694 6.017040 11.266616 -2.051993 5.195089 0.000000 0.000000 0.000000
-90.174178 104.149684 380.367352 -126.873854 -0.601685 -0.601909 -7.279994 5.322388 1.960267 -3.254419 2.334575 0.953795 -3.254389 2.334571 0.953791 -2.444087 1.745913 0.727703 -5.931612 14.961129 2.808381 -12.158276 -7.860002 7.480019 -0.838408 3.648133 8.032977 8.012476 -14.146191 47.131147 44.227041 -42.391463 23.596595 -14.013302 -11.970238 14.640413 2.961452 5.626531 -3.832862 -10.861420 -26.869357 -50.819009 -16.673615 -53.989696 -51.144554 22.900422 -16.641933 2.684420 -19.460504 -14.755734 8.725266 1.796395 22.828965 -4.540934 -5.890322 -10.663388 -2.681367 0.000000 0.000000 0.000000 31.008478 -12.511423 18.791855 14.644921 35.810968 5.839339 9.346993 -2.559558 5.568198 0.000000 0.000000 -0.000000
-90.489502 104.252124 379.362505 -128.620275 -0.787178 -0.208168 -7.239018 5.343817 1.785878 -3.234289 2.347007 0.876238 -3.234265 2.347012 0.876233 -2.428716 1.755689 0.669529 -5.681233 15.015034 2.671895 -11.634498 -7.807041 7.127295 -0.573954 4.077201 7.792549 7.919651 -14.665883 47.290512 44.087635 -42.302079 23.672836 -14.280471 -11.910864 14.704132 2.999779 5.924692 -3.855598 -10.374071 -27.141602 -51.188297 -16.994476 -53.979927 -50.863618 23.071176 -16.562738 2.653425 -18.328469 -14.165091 8.539255 1.765229 22.738070 -4.478730 -5.125258 -10.991098 -2.826571 0.000000 0.000000 0.000000 30.527792 -12.808636 18.228813 10.806060 38.424787 4.696706 7.658812 -3.825524 5.186346 -0.000000 -0.000000 -0.000000
-90.817466 104.368911 378.387763 -130.395404 -0.941115 0.177612 -7.176401 5.348399 1.636443 -3.204820 2.351591 0.809254 -3.204820 2.351591 0.809254 -2.406397 1.759512 0.619213 -5.445943 15.064234 2.491050 -11.123240 -7.764187 6.698116 -0.377355 4.327943 7.567109 7.985599 -14.928977 47.359212 44.021267 -42.266670 23.684210 -14.480058 -11.884349 14.735265 3.024584 6.163679 -3.887745 -9.951601 -27.308929 -51.489958 -17.246607 -53.991949 -50.635674 23.192625 -16.515115 2.584342 -17.144620 -13.530163 8.326356 1.790126 22.489358 -4.379037 -4.408044 -11.213930 -2.965404 0.000000 0.000000 0.000000 29.543320 -12.925900 17.584180 7.194180 40.731691 3.157233 6.482277 -5.083438 4.658409 0.000000 0.000000 0.000000
-91.138359 104.499127 377.428707 -132.172010 -1.050823 0.533781 -7.089294 5.315341 1.520868 -3.164778 2.338970 0.756457 -3.164792 2.338965 0.756463 -2.376174 1.750361 0.579409 -5.232516 15.144656 2.241325 -10.624696 -7.666757 6.145293 -0.303694 4.135706 7.452387 8.282372 -14.587904 47.238597 44.003387 -42.339371 23.633946 -14.559804 -11.908607 14.696164 3.022254 6.284373 -3.916079 -9.634432 -27.290667 -51.692178 -17.320217 -53.998248 -50.526953 23.225941 -16.517981 2.492680 -16.169869 -12.824953 8.214080 2.075003 22.077740 -4.326643 -3.731979 -11.327351 -3.081693 0.000000 0.000000 0.000000 27.774872 -12.836581 16.905439 4.245071 42.693415 1.348865 6.048790 -6.033047 3.909242 0.000000 0.000000 -0.000000
